<svg width="63" height="71" viewBox="0 0 63 71" fill="none" xmlns="http://www.w3.org/2000/svg">
<circle cx="8.09634" cy="8.09634" r="8.09634" transform="matrix(-0.5 0.866025 0.866025 0.5 31.4844 0)" fill="#EFB343"/>
<rect width="16.1927" height="27.6625" transform="matrix(-0.5 0.866025 0.866025 0.5 38.4961 4.04834)" fill="#EFB343"/>
<circle cx="8.09634" cy="8.09634" r="8.09634" transform="matrix(0.866025 0.5 0.5 -0.866025 30.5859 40.8633)" fill="#EFB343"/>
<rect width="16.1927" height="27.6625" transform="matrix(0.866025 0.5 0.5 -0.866025 34.6348 33.8516)" fill="#EFB343"/>
<circle cx="8.09634" cy="8.09634" r="8.09634" transform="matrix(0.5 -0.866025 -0.866025 -0.5 31.0039 71)" fill="#5B8B77"/>
<rect width="16.1927" height="27.6625" transform="matrix(0.5 -0.866025 -0.866025 -0.5 23.9922 66.9517)" fill="#5B8B77"/>
<circle cx="8.09634" cy="8.09634" r="8.09634" transform="matrix(-0.866025 -0.5 -0.5 0.866025 31.9023 30.1362)" fill="#5B8B77"/>
<rect width="16.1927" height="27.6625" transform="matrix(-0.866025 -0.5 -0.5 0.866025 27.8535 37.1479)" fill="#5B8B77"/>
</svg>
