<svg width="133" height="133" viewBox="0 0 133 133" fill="none" xmlns="http://www.w3.org/2000/svg">
<path d="M72.6229 131.464C68.7025 133.088 64.2975 133.088 60.3771 131.464L24.8932 116.766C20.9728 115.142 17.858 112.027 16.2341 108.107L1.5362 72.6229C-0.0877018 68.7025 -0.0877167 64.2975 1.5362 60.3771L16.2341 24.8932C17.858 20.9728 20.9728 17.858 24.8932 16.2341L60.3771 1.53622C64.2975 -0.0876831 68.7025 -0.087698 72.6229 1.53622L108.107 16.2341C112.027 17.858 115.142 20.9728 116.766 24.8932L131.464 60.3771C133.088 64.2975 133.088 68.7025 131.464 72.6229L116.766 108.107C115.142 112.027 112.027 115.142 108.107 116.766L72.6229 131.464Z" fill="#FF8E27"/>
</svg>
