<svg width="400" height="400" viewBox="0 0 400 400" fill="none" xmlns="http://www.w3.org/2000/svg">
<path opacity="0.5" d="M206.123 398.464C202.202 400.088 197.798 400.088 193.877 398.464L63.9945 344.665C60.074 343.041 56.9592 339.926 55.3353 336.006L1.53618 206.123C-0.0877207 202.202 -0.0877203 197.797 1.53618 193.877L55.3354 63.9945C56.9593 60.074 60.074 56.9593 63.9945 55.3354L193.877 1.53621C197.798 -0.0876948 202.203 -0.0876944 206.123 1.53621L336.006 55.3354C339.926 56.9593 343.041 60.0741 344.665 63.9945L398.464 193.877C400.088 197.798 400.088 202.202 398.464 206.123L344.665 336.006C343.041 339.926 339.926 343.041 336.006 344.665L206.123 398.464Z" fill="#507C6A"/>
</svg>
