<svg width="104" height="104" viewBox="0 0 104 104" fill="none" xmlns="http://www.w3.org/2000/svg">
<path d="M55.0615 102.732C53.1012 103.544 50.8988 103.544 48.9385 102.732L18.2919 90.0376C16.3317 89.2257 14.7743 87.6683 13.9623 85.7081L1.2681 55.0615C0.456143 53.1012 0.456143 50.8988 1.2681 48.9385L13.9623 18.2919C14.7743 16.3317 16.3317 14.7743 18.2919 13.9623L48.9385 1.26811C50.8988 0.456157 53.1012 0.456149 55.0615 1.26811L85.7081 13.9623C87.6683 14.7743 89.2257 16.3317 90.0377 18.2919L102.732 48.9385C103.544 50.8988 103.544 53.1012 102.732 55.0615L90.0377 85.7081C89.2257 87.6683 87.6683 89.2257 85.7081 90.0377L55.0615 102.732Z" fill="#F94D1C"/>
</svg>
