<svg width="186" height="106" viewBox="0 0 186 106" fill="none" xmlns="http://www.w3.org/2000/svg">
<path d="M100.327 104.415C97.8765 105.43 95.1234 105.43 92.6732 104.415L32.091 79.3209C29.6407 78.306 27.694 76.3592 26.6791 73.909L1.58512 13.3268C0.570183 10.8765 0.570184 8.12343 1.58512 5.67316L26.6791 -54.909C27.694 -57.3593 29.6408 -59.306 32.091 -60.3209L92.6732 -85.4149C95.1235 -86.4298 97.8766 -86.4298 100.327 -85.4149L160.909 -60.3209C163.359 -59.306 165.306 -57.3592 166.321 -54.909L191.415 5.67317C192.43 8.12345 192.43 10.8766 191.415 13.3268L166.321 73.909C165.306 76.3593 163.359 78.306 160.909 79.3209L100.327 104.415Z" fill="#4F7A68"/>
</svg>
