<svg width="58" height="56" viewBox="0 0 58 56" fill="none" xmlns="http://www.w3.org/2000/svg">
<path d="M32.7134 54.5149C30.3296 55.4683 27.6704 55.4683 25.2866 54.5149L12.3382 49.3364C9.87666 48.352 7.90676 46.4304 6.86154 43.994L1.69139 31.9426C0.611391 29.4251 0.611392 26.5749 1.69139 24.0574L6.86155 12.006C7.90676 9.56961 9.87666 7.648 12.3382 6.66356L25.2867 1.48508C27.6704 0.531736 30.3296 0.531736 32.7134 1.48508L45.6618 6.66356C48.1233 7.64801 50.0932 9.56962 51.1385 12.006L56.3086 24.0574C57.3886 26.5749 57.3886 29.4251 56.3086 31.9426L51.1385 43.994C50.0932 46.4304 48.1233 48.352 45.6618 49.3364L32.7134 54.5149Z" fill="#507C6A"/>
</svg>
